# xmcd
#
# Track frame offsets:
#	150
#	14645
#	22177
#	33696
#	53555
#	62153
#	72692
#	86393
#	95753
#	114499
#	126221
#	136405
#	155035
#	165570
#	175872
#	186460
#	200598
#
# Disc length: 2813 seconds
#
# Revision: 1
# Processed by: cddbd v1.5.1PL0 Copyright (c) Steve Scherf et al.
# Submitted via: EasyCDDAExtractor 7.0.9.1
#
DISCID=000afb11
DTITLE=Roger Tibbs - Yodelling Man
DYEAR=1993
DGENRE=Country
TTITLE0=Blue Eyes Crying In The Rain
TTITLE1=Chime Bells
TTITLE2=Do What You Do Do Well
TTITLE3=Freight Train Yodel
TTITLE4=It's A Small World
TTITLE5=Lovesick Blues
TTITLE6=Rockinover River
TTITLE7=She Taught Me To Yodel
TTITLE8=Sliver Wings
TTITLE9=Song Of Queensland
TTITLE10=Streamline Yodel
TTITLE11=The Old Waterwheel
TTITLE12=The Shearers Jamboree
TTITLE13=There's A Love Knot In My Lariat
TTITLE14=Waiting For A Train
TTITLE15=Wonderfull World
TTITLE16=Yodel Boogie
EXTD=
EXTT0=
EXTT1=
EXTT2=
EXTT3=
EXTT4=
EXTT5=
EXTT6=
EXTT7=
EXTT8=
EXTT9=
EXTT10=
EXTT11=
EXTT12=
EXTT13=
EXTT14=
EXTT15=
EXTT16=
PLAYORDER=
